<?xml version="1.0" encoding="UTF-8" standalone="no"?>
<svg
   version="1.1"
   width="749.99994"
   height="167.85277"
   viewBox="0 0 749.99994 167.85277"
   id="svg19"
   sodipodi:docname="logo.svg"
   inkscape:version="1.2.2 (b0a84865, 2022-12-01)"
   xmlns:inkscape="http://www.inkscape.org/namespaces/inkscape"
   xmlns:sodipodi="http://sodipodi.sourceforge.net/DTD/sodipodi-0.dtd"
   xmlns="http://www.w3.org/2000/svg"
   xmlns:svg="http://www.w3.org/2000/svg">
  <defs
     id="defs23" />
  <sodipodi:namedview
     id="namedview21"
     pagecolor="#ffffff"
     bordercolor="#000000"
     borderopacity="0.25"
     inkscape:showpageshadow="2"
     inkscape:pageopacity="0.0"
     inkscape:pagecheckerboard="true"
     inkscape:deskcolor="#d1d1d1"
     showgrid="false"
     inkscape:zoom="2.0363696"
     inkscape:cx="399.23991"
     inkscape:cy="41.24988"
     inkscape:window-width="2560"
     inkscape:window-height="1316"
     inkscape:window-x="3432"
     inkscape:window-y="25"
     inkscape:window-maximized="1"
     inkscape:current-layer="svg19" />
  <g
     id="g17"
     transform="translate(-125.00005,-216.07361)">
    <circle
       r="166.66667"
       cx="414.90021"
       cy="437.12231"
       fill="#3a7481"
       transform="matrix(0.50355829,0,0,0.50355829,0,79.883431)"
       id="circle11"
       style="fill:#5e77da;fill-opacity:1" />
    <path
       d="m 256.6126,263.89087 v 0 q -0.4613,1.48932 -1.34435,2.46463 -0.88305,0.96213 -1.7661,1.93744 -0.86987,0.97531 -1.52886,2.2274 -0.64581,1.25208 -0.64581,3.29496 v 0 q -1.5684,1.93744 -3.57174,2.30647 -1.99016,0.38222 -4.67885,0.65899 v 0 q -2.78095,0.27678 -5.2324,0.36904 -2.45145,0.0923 -5.23241,-0.55355 v 0 q -1.12028,-0.18452 -2.17467,-0.51402 -1.06757,-0.32949 -2.28011,-0.51401 v 0 q -1.84518,-0.18452 -4.03304,-0.1318 -2.17467,0.0395 -4.01986,0.22406 v 0 q -3.25542,0.27677 -5.15332,0.97531 -1.8979,0.69853 -3.74308,2.35919 v 0 q -0.75125,0.65899 -1.34434,1.7661 -0.60628,1.10711 -1.34435,2.13514 v 0 q -0.46129,0.55355 -1.02803,0.92259 -0.55355,0.36904 -0.83033,0.92259 v 0 q -0.27677,0.47447 -0.42175,1.15982 -0.1318,0.69854 -0.31632,1.43661 v 0 q -0.46129,1.58158 -1.12029,3.61128 -0.64581,2.04288 -0.92258,3.9935 v 0 q 0.92258,0.64581 2.04287,0.73807 1.10711,0.0922 2.3592,-0.0395 1.25208,-0.14498 2.54371,-0.42176 1.3048,-0.27677 2.50417,-0.36904 v 0 q 1.85836,-0.18451 3.75626,-0.14497 1.8979,0.0527 3.57174,-0.1318 v 0 q 1.5684,-0.0923 2.91275,0.18452 1.34434,0.27677 2.83366,0.46129 v 0 q 1.66066,0.18452 3.24225,0.36904 1.5684,0.18451 1.5684,1.29162 v 0 q 0,0.47448 -0.64581,1.12029 -0.64581,0.64581 -1.10711,0.83033 v 0 q -1.21255,0.73807 -2.59643,1.01485 -1.39706,0.28996 -2.74141,0.56673 -1.34435,0.27678 -2.63597,0.68535 -1.29163,0.42176 -2.2274,1.25209 v 0 q -0.64581,0.55355 -1.19936,1.52887 -0.55356,0.9753 -1.48933,1.4366 v 0 q -0.55355,0.27678 -1.29163,0.27678 -0.73807,0 -1.48931,0.0923 v 0 q -3.33451,0.65899 -7.07759,1.62112 -3.75625,0.97531 -6.53721,2.18786 v 0 q -0.46129,0.92258 -0.69853,2.02969 -0.22405,1.12029 -0.46129,2.28011 -0.23724,1.15983 -0.64581,2.12196 -0.42176,0.97531 -1.15983,1.62112 v 0 q 0.27678,1.85836 -0.0923,3.43995 -0.36903,1.5684 -0.73807,3.70353 v 0 q -0.18452,1.38389 -0.42176,2.96547 -0.23723,1.56841 -0.69853,2.68869 v 0 q -0.0923,0.36904 -0.40858,0.97531 -0.32949,0.59309 -0.69853,1.19937 -0.36903,0.60627 -0.73807,1.06757 -0.38222,0.46129 -0.65899,0.55355 v 0 q -0.73807,0.36904 -1.66066,0.14498 -0.93578,-0.23724 -1.67385,-0.0527 v 0 q -0.92259,0.27678 -1.5684,0.92259 -0.65899,0.65899 -1.21254,1.39706 -0.55356,0.73807 -1.15983,1.47615 -0.59309,0.75125 -1.4366,1.21254 v 0 q -0.83034,-0.0923 -1.71339,-0.14497 -0.86987,-0.0395 -1.66066,-0.22406 -0.79079,-0.18452 -1.39706,-0.56674 -0.59309,-0.36903 -0.86988,-1.1071 v 0 q -1.7661,1.3048 -3.29496,0.42175 -1.52886,-0.88305 -2.08241,-2.46463 v 0 q 1.5684,-3.51902 3.24224,-7.64432 1.66066,-4.12529 2.87321,-8.38238 v 0 q 0.46129,-1.85836 0.55355,-4.54706 0.0923,-2.6755 0.27678,-4.81064 v 0 q 0.18452,-1.02803 0.64581,-2.04288 0.4613,-1.01485 0.36904,-2.04287 v 0 q 0,-0.83034 -0.64581,-1.56841 -0.64582,-0.73807 -1.29163,-1.58158 -0.64582,-0.83033 -0.88305,-1.75292 -0.23724,-0.93577 0.51402,-2.04288 v 0 q 0.36903,-0.55355 1.14664,-0.73807 0.79079,-0.18452 1.6343,-0.32949 0.83033,-0.13181 1.62113,-0.40858 0.77761,-0.28996 1.05438,-0.84351 v 0 q -0.27677,-1.10711 0.51402,-1.75292 0.79079,-0.659 0.97531,-1.39707 v 0 q 0.18452,-0.64581 0.0923,-1.47614 -0.0923,-0.84351 0.0923,-1.7661 v 0 q 0.18451,-0.73807 0.51401,-1.47614 0.31632,-0.75126 0.50083,-1.48933 v 0 q 0.18452,-0.64581 0.0527,-1.29162 -0.14498,-0.659 0.0395,-1.39707 v 0 q 0.18452,-0.4613 0.79079,-1.15983 0.60628,-0.68535 0.69854,-1.25208 v 0 q 0,-0.4613 -0.42176,-0.77761 -0.40858,-0.3295 -0.59309,-0.79079 v 0 q -0.0923,-0.55356 0.18451,-1.06757 0.27678,-0.51402 0.27678,-1.06757 v 0 q 0,-0.73807 -0.32949,-1.66066 -0.3295,-0.93577 -0.51402,-1.85836 v 0 q -0.18452,-0.92259 -0.31632,-1.8979 -0.14497,-0.97531 -0.32949,-1.52887 v 0 q -0.27678,-0.83032 -1.19937,-1.62112 -0.93577,-0.79079 -1.58158,-1.52886 -0.64581,-0.73807 -0.64581,-1.48932 0,-0.73807 1.39706,-1.29163 v 0 q 6.48449,1.10711 13.94428,1.06757 7.4598,-0.0527 14.86688,0.1318 v 0 q 1.21255,0 1.99016,0.0923 0.79079,0.0923 1.48932,0.18452 0.69854,0.0922 1.38389,0.0922 0.69853,0 1.71338,0 v 0 q 2.22739,0 4.54705,-0.46129 2.31965,-0.4613 4.6393,-0.64581 v 0 q 3.51903,-0.36904 6.61629,-0.0527 3.11045,0.3295 6.07592,0.14498 v 0 q 3.51902,-0.27678 6.48448,-0.73807 2.96547,-0.4613 6.29997,-1.30481 v 0 q 0.36904,-0.18452 1.01485,-0.18452 0.65899,0 1.21255,0.18452 z"
       fill="#ffffff"
       id="path13"
       style="stroke-width:0.503558" />
    <path
       d="m 716.62078,417.42479 v 0 q 2.61294,0.83269 5.22588,0.4307 2.64165,-0.4307 5.65659,0 v 0 q 3.24464,0.40199 5.85758,1.49311 2.64165,1.11983 6.46056,0.51684 v 0 q 5.45559,-0.80398 11.11218,-1.72281 5.65658,-0.91884 10.71018,0.71784 v 0 q 0.40199,2.21095 -0.71784,3.73277 -1.11983,1.52182 -2.7278,1.92381 v 0 q -0.60298,2.61294 -2.1248,3.53178 -1.52183,0.89012 -3.41693,1.09112 -1.92381,0.20099 -4.24961,0.11485 -2.32581,-0.11485 -4.53676,0.68913 v 0 q -1.60796,0.6317 -3.24464,2.12481 -1.60796,1.52182 -4.0199,2.1248 v 0 q -1.03369,0.402 -2.23967,0.31585 -1.20597,-0.11485 -2.81393,0.0862 v 0 q -1.40697,0.20099 -2.84265,0.60298 -1.40697,0.40199 -2.61294,0.80398 v 0 q -1.20597,0.201 -2.41195,0 -1.23468,-0.20099 -2.23966,0.201 v 0 q -1.40697,0.40199 -3.33078,1.23468 -1.92381,0.80399 -4.13476,0.60299 v 0 q -2.21095,2.41195 -3.81892,6.25957 -1.63667,3.81891 -2.84264,8.06853 -1.20598,4.24962 -2.21095,8.67152 -1.00498,4.45061 -2.23967,8.29824 v 0 q -0.40199,1.60796 -0.68912,3.61791 -0.31585,2.00996 -0.71785,3.04365 v 0 q -0.40199,0.60298 -2.72779,1.29211 -2.3258,0.71784 -5.13974,1.20597 -2.81393,0.51685 -5.34073,0.71784 -2.5268,0.201 -3.12979,-0.40199 v 0 q -1.63668,-1.00497 -1.92381,0.31585 -0.31585,1.29212 -1.32083,1.49311 v 0 q -1.20597,0.40199 -2.81394,0.201 -1.63667,-0.201 -3.04364,0.40199 v 0 q -1.00498,0.40199 -1.60796,1.43568 -0.60299,1.00498 -1.60797,1.60796 v 0 q -2.64165,1.40697 -5.16845,0.80398 -2.49809,-0.60298 -2.69908,-3.64663 v 0 q -0.22971,-1.80895 1.00498,-4.33575 1.20597,-2.5268 2.81393,-3.93377 v 0 q -0.20099,-2.21095 1.00498,-3.81891 1.20597,-1.63668 1.63668,-3.84763 v 0 q 0.20099,-1.00498 0,-2.21095 -0.201,-1.23469 0,-2.44066 v 0 q 0.40199,-2.21095 2.61294,-4.73775 2.21095,-2.5268 3.21592,-5.34073 v 0 q 1.63668,-4.45061 2.7278,-10.82504 1.11983,-6.34571 2.92879,-11.19831 v 0 q 0.60298,-1.60797 1.72281,-2.92879 1.11984,-1.29212 1.72282,-2.7278 v 0 q 1.60797,-4.4219 1.60797,-8.67152 0,-4.24961 0.40199,-9.0735 v 0 q 0.20099,-1.83767 1.00497,-3.33078 0.80399,-1.52182 1.43569,-3.53178 v 0 q 1.40696,-4.24962 1.6941,-8.58537 0.31585,-4.33576 1.72282,-7.98239 v 0 q -0.201,-2.00996 -1.20598,-3.44564 -1.00497,-1.40697 -2.1248,-2.49808 -1.11984,-1.11984 -2.21095,-2.44066 -1.11983,-1.32083 -1.32083,-3.33078 v 0 q 1.40697,-0.80398 2.81394,-0.89013 1.43568,-0.11485 2.84264,0.201 1.40697,0.28714 2.81394,0.60299 1.43568,0.28713 2.84265,0.0861 v 0 q 1.20597,-0.40199 2.92879,-1.00498 1.6941,-0.60299 4.13476,-0.201 v 0 q 1.40697,0.402 2.61294,1.11984 1.20597,0.68912 3.44564,0.89012 v 0 q 2.00995,0.40199 4.2209,0.31585 2.23966,-0.11486 4.04862,0.89012 v 0 q 1.40697,0.43071 3.33078,0.91884 1.92382,0.51684 2.92879,0.71784 v 0 q 4.04863,0.60298 8.87251,0.0861 4.85261,-0.48813 10.1072,-0.0861 v 0 q 2.41195,0.20099 4.65161,0.80398 2.21095,0.60299 4.62289,1.00498 v 0 q 3.44564,0.40199 7.98239,0.20099 4.53676,-0.20099 8.58538,-0.60298 v 0 q 2.61294,-0.201 4.45061,-0.51685 1.80896,-0.28714 3.41692,-0.60299 1.60796,-0.28713 3.33078,-0.40199 1.72282,-0.0861 4.13477,0.11486 v 0 q 1.23468,0.20099 2.72779,0.28713 1.52182,0.11486 1.52182,1.72282 v 0 q 0.201,2.21095 -1.60796,3.04365 -1.83767,0.80398 -3.84763,1.80895 v 0 q -2.81393,1.40697 -4.93874,3.12979 -2.12481,1.72282 -4.53675,2.7278 v 0 q -2.84265,1.20597 -5.45559,1.4931 -2.64166,0.31585 -6.25958,1.32083 v 0 q -4.45061,1.00498 -8.67151,1.72282 -4.24962,0.71784 -9.10222,0.28713 v 0 q -2.61294,-0.40199 -5.65659,-0.89012 -3.01493,-0.51684 -5.45559,0.28714 v 0 q -1.80895,0.40199 -3.12978,2.72779 -1.29211,2.32581 -3.53178,3.73277 v 0 q -1.00497,0.60299 -2.00995,0.80399 -1.00498,0.22971 -1.80896,0.6317 v 0 q -1.80896,1.20597 -2.92879,3.41692 -1.11983,2.21095 -1.92381,4.73775 -0.80398,2.5268 -1.60797,5.36945 -0.80398,2.81393 -1.60796,5.22588 z m 170.18568,-26.64625 v 0 q 2.00995,4.04862 3.01493,7.49426 1.03369,3.41692 1.63667,9.2745 v 0 q 0.402,4.04862 0.89013,7.1784 0.51684,3.12979 0.11485,7.75268 v 0 q -0.20099,3.24464 -1.00498,6.77642 -0.83269,3.53178 -2.03866,6.54671 v 0 q -1.80896,5.45559 -3.41692,9.50421 -1.60797,4.01991 -3.84763,8.67151 v 0 q -1.40697,2.64166 -2.81394,4.24962 -1.40696,1.60797 -3.04364,3.41692 v 0 q -0.40199,0.60299 -0.68913,1.43569 -0.31585,0.80398 -0.91883,1.40696 v 0 q -2.61294,3.01493 -7.17841,6.25957 -4.53675,3.21593 -8.35567,4.6229 v 0 q -1.43568,0.4307 -2.92879,0.51684 -1.52182,0.11486 -3.12978,0.51685 v 0 q -2.03867,0.80398 -3.44564,2.29709 -1.40697,1.52182 -3.61792,2.12481 v 0 q -1.23468,0.40199 -2.92879,0.71784 -1.72281,0.28713 -3.33078,0.71784 v 0 q -4.04862,1.00498 -9.99234,2.00995 -5.97243,1.00498 -11.02603,-0.20099 v 0 q -0.80398,-0.201 -1.60797,-0.80398 -0.80398,-0.60299 -1.80895,-1.00498 v 0 q -1.00498,-0.43071 -2.00996,-0.6317 -1.03369,-0.201 -1.83767,-0.60299 v 0 q -2.61294,-1.00497 -5.0536,-2.81393 -2.41194,-1.80896 -5.02488,-2.84265 v 0 q -2.84265,-1.60797 -5.65659,-2.90008 -2.84265,-1.32083 -3.84763,-4.76646 v 0 q -3.41692,-1.00498 -4.8526,-4.62289 -1.40697,-3.64664 -3.41692,-6.46057 v 0 q -0.60299,-1.03369 -1.72282,-1.72282 -1.11983,-0.71784 -1.52182,-1.72282 v 0 q -1.40697,-2.21095 -2.21095,-7.1784 -0.80398,-4.93875 -1.00498,-8.35567 v 0 q -0.20099,-3.64663 0.48813,-6.97741 0.71785,-3.33078 1.63668,-6.54671 0.89012,-3.24464 2.00996,-6.25957 1.11983,-3.04364 1.92381,-5.85758 v 0 q 0.80398,-3.44564 3.01493,-5.45559 2.23966,-2.03867 4.24962,-4.45061 v 0 q 0.80398,-0.80398 1.20597,-1.80896 0.40199,-1.00498 1.20597,-2.00995 v 0 q 1.63668,-2.03867 3.64663,-3.56049 2.00996,-1.49311 3.84763,-3.12979 v 0 q 2.00995,-1.60796 4.2209,-3.10107 2.23967,-1.52182 3.64663,-3.12979 v 0 q 1.60797,-2.23966 2.5268,-4.45061 0.89012,-2.23966 2.92879,-3.84763 v 0 q 2.21095,-1.80895 4.93875,-2.61294 2.72779,-0.80398 6.34571,-1.80895 v 0 q 3.44563,-0.8327 6.77641,-2.32581 3.33079,-1.52182 7.1497,-1.92381 v 0 q 3.64663,-0.40199 7.89625,-0.51685 4.2209,-0.0861 8.35566,0.31585 4.16348,0.40199 7.89625,1.40697 3.73277,1.00498 6.54671,2.84265 v 0 q 1.40696,0.80398 2.92879,2.41194 1.52182,1.60797 2.92879,3.01494 v 0 q 3.24464,3.24464 5.54173,6.57542 2.3258,3.33078 5.77144,6.34571 z m -44.018,-9.07351 v 0 q -0.80398,0 -2.3258,0.60299 -1.52182,0.60298 -3.01493,1.32083 -1.52182,0.68912 -2.7278,1.4931 -1.20597,0.8327 -1.80895,1.23469 v 0 q -2.44066,2.21095 -4.36448,5.54173 -1.89509,3.33078 -4.33575,5.94372 v 0 q -1.00498,1.03369 -2.12481,1.52182 -1.09112,0.51685 -1.69411,1.32083 v 0 q -3.44563,3.81891 -4.96745,8.87251 -1.49311,5.0536 -3.12979,9.70521 v 0 q -1.80896,4.8526 -3.41692,10.88246 -1.60796,6.05858 -1.00498,11.51417 v 0 q 0.201,1.20597 0.89012,3.12978 0.71785,1.92382 1.32083,3.53178 v 0 q 0.80398,1.83767 1.52182,3.53178 0.68913,1.72281 1.49311,3.12978 v 0 q 1.23469,2.44066 3.12979,5.16845 1.92381,2.7278 4.45061,4.6229 2.5268,1.92381 5.65659,2.84265 3.12978,0.89012 6.77641,-0.11486 v 0 q 2.21095,-0.80398 5.42688,-2.5268 3.24464,-1.6941 5.85758,-3.33078 v 0 q 3.84762,-2.41194 5.45559,-4.93874 1.60796,-2.5268 3.24464,-6.54671 v 0 q 0.40199,-1.03369 1.09111,-1.92381 0.71785,-0.91884 1.32083,-1.92381 v 0 q 1.20597,-2.21095 2.00996,-4.85261 0.80398,-2.61294 2.03866,-5.0536 v 0 q 2.41195,-5.42687 3.01493,-10.48047 0.60299,-5.0536 1.00498,-12.11715 v 0 q 0.201,-3.84763 -0.48813,-5.65659 -0.71784,-1.80895 -1.11983,-5.05359 v 0 q -0.201,-2.21095 -0.201,-4.13477 0,-1.92381 -0.80398,-3.33078 v 0 q -1.00498,-1.80896 -3.73277,-2.41194 -2.7278,-0.60299 -4.33576,-2.23967 v 0 q -1.63668,-2.61294 -3.44563,-5.02488 -1.80896,-2.44066 -4.45062,-4.04862 v 0 q -1.00497,0.20099 -1.40696,0 -0.40199,-0.201 -0.80399,-0.201 z m 166.56774,9.07351 v 0 q 2.01,4.04862 3.015,7.49426 1.0049,3.41692 1.6366,9.2745 v 0 q 0.402,4.04862 0.8902,7.1784 0.5168,3.12979 0.1148,7.75268 v 0 q -0.201,3.24464 -1.005,6.77642 -0.8327,3.53178 -2.0386,6.54671 v 0 q -1.809,5.45559 -3.417,9.50421 -1.6366,4.01991 -3.8476,8.67151 v 0 q -1.407,2.64166 -2.8139,4.24962 -1.4357,1.60797 -3.04366,3.41692 v 0 q -0.402,0.60299 -0.68913,1.43569 -0.31585,0.80398 -0.91884,1.40696 v 0 q -2.61294,3.01493 -7.17841,6.25957 -4.53675,3.21593 -8.35566,4.6229 v 0 q -1.43568,0.4307 -2.92879,0.51684 -1.52182,0.11486 -3.12979,0.51685 v 0 q -2.03866,0.80398 -3.44563,2.29709 -1.40697,1.52182 -3.61792,2.12481 v 0 q -1.23469,0.40199 -2.92879,0.71784 -1.72282,0.28713 -3.33078,0.71784 v 0 q -4.04862,1.00498 -9.99234,2.00995 -5.97244,1.00498 -11.02604,-0.20099 v 0 q -0.80398,-0.201 -1.60796,-0.80398 -0.80398,-0.60299 -1.80896,-1.00498 v 0 q -1.00498,-0.43071 -2.03867,-0.6317 -1.00497,-0.201 -1.80895,-0.60299 v 0 q -2.61294,-1.00497 -5.0536,-2.81393 -2.41195,-1.80896 -5.02489,-2.84265 v 0 q -2.84265,-1.60797 -5.65658,-2.90008 -2.84265,-1.32083 -3.84763,-4.76646 v 0 q -3.41692,-1.00498 -4.8526,-4.62289 -1.40697,-3.64664 -3.41692,-6.46057 v 0 q -0.60299,-1.03369 -1.72282,-1.72282 -1.11983,-0.71784 -1.52182,-1.72282 v 0 q -1.40697,-2.21095 -2.21095,-7.1784 -0.80399,-4.93875 -1.00498,-8.35567 v 0 q -0.201,-3.64663 0.48813,-6.97741 0.71784,-3.33078 1.63668,-6.54671 0.89012,-3.24464 2.00995,-6.25957 1.11983,-3.04364 1.92382,-5.85758 v 0 q 0.80398,-3.44564 3.01493,-5.45559 2.23966,-2.03867 4.24961,-4.45061 v 0 q 0.80398,-0.80398 1.20598,-1.80896 0.40199,-1.00498 1.20597,-2.00995 v 0 q 1.63667,-2.03867 3.64663,-3.56049 2.00995,-1.49311 3.81891,-3.12979 v 0 q 2.03867,-1.60796 4.24962,-3.10107 2.21095,-1.52182 3.64663,-3.12979 v 0 q 1.60796,-2.23966 2.5268,-4.45061 0.89012,-2.23966 2.92879,-3.84763 v 0 q 2.21095,-1.80895 4.93874,-2.61294 2.7278,-0.80398 6.34571,-1.80895 v 0 q 3.44564,-0.8327 6.77642,-2.32581 3.33078,-1.52182 7.14969,-1.92381 v 0 q 3.64664,-0.40199 7.89625,-0.51685 4.22091,-0.0861 8.35567,0.31585 4.16347,0.40199 7.89625,1.40697 3.73277,1.00498 6.5467,2.84265 v 0 q 1.40697,0.80398 2.92879,2.41194 1.52183,1.60797 2.92879,3.01494 v 0 q 3.24465,3.24464 5.54175,6.57542 2.3258,3.33078 5.7714,6.34571 z m -44.01797,-9.07351 v 0 q -0.80398,0 -2.3258,0.60299 -1.52183,0.60298 -3.01493,1.32083 -1.52183,0.68912 -2.7278,1.4931 -1.20597,0.8327 -1.80896,1.23469 v 0 q -2.44066,2.21095 -4.36447,5.54173 -1.8951,3.33078 -4.33576,5.94372 v 0 q -1.00497,1.03369 -2.12481,1.52182 -1.09111,0.51685 -1.6941,1.32083 v 0 q -3.44564,3.81891 -4.96746,8.87251 -1.49311,5.0536 -3.12978,9.70521 v 0 q -1.80896,4.8526 -3.41692,10.88246 -1.60797,6.05858 -1.00498,11.51417 v 0 q 0.20099,1.20597 0.89012,3.12978 0.71784,1.92382 1.32083,3.53178 v 0 q 0.80398,1.83767 1.52182,3.53178 0.68913,1.72281 1.49311,3.12978 v 0 q 1.23468,2.44066 3.12978,5.16845 1.92382,2.7278 4.45062,4.6229 2.5268,1.92381 5.65658,2.84265 3.12979,0.89012 6.77642,-0.11486 v 0 q 2.21095,-0.80398 5.42687,-2.5268 3.24464,-1.6941 5.85758,-3.33078 v 0 q 3.84763,-2.41194 5.45559,-4.93874 1.60797,-2.5268 3.24464,-6.54671 v 0 q 0.40199,-1.03369 1.09112,-1.92381 0.71784,-0.91884 1.32083,-1.92381 v 0 q 1.20597,-2.21095 2.00995,-4.85261 0.80398,-2.61294 2.03867,-5.0536 v 0 q 2.41194,-5.42687 3.01493,-10.48047 0.60299,-5.0536 1.00498,-12.11715 v 0 q 0.20099,-3.84763 -0.48813,-5.65659 -0.71784,-1.80895 -1.11984,-5.05359 v 0 q -0.20099,-2.21095 -0.20099,-4.13477 0,-1.92381 -0.80398,-3.33078 v 0 q -1.00498,-1.80896 -3.73277,-2.41194 -2.7278,-0.60299 -4.33576,-2.23967 v 0 q -1.63668,-2.61294 -3.44564,-5.02488 -1.80896,-2.44066 -4.45061,-4.04862 v 0 q -1.00498,0.20099 -1.40697,0 -0.40199,-0.201 -0.80398,-0.201 z m 166.36677,-8.47052 v 0 q -0.402,3.21593 -2.3258,4.01991 -1.9238,0.80398 -3.9338,1.83767 v 0 q -1.4069,1.00498 -2.0099,2.61294 -0.6317,1.60797 -1.6367,2.41195 v 0 q -1.005,1.00497 -2.9288,1.52182 -1.8951,0.51684 -3.1298,0.91884 v 0 q -3.4169,1.00497 -7.1497,1.00497 -3.7327,0 -6.5754,0.40199 v 0 q -1.608,0.40199 -3.2159,1.80896 -1.6367,1.40697 -3.4457,2.23966 v 0 q -1.8089,0.60299 -2.8139,1.00498 -1.005,0.40199 -1.7228,1.00498 -0.7179,0.60298 -1.3208,1.52182 -0.603,0.89012 -1.608,2.49809 v 0 q -1.005,1.83767 -1.005,5.25459 0,3.44564 -0.603,5.65659 v 0 q -0.603,1.80895 -1.3208,4.24961 -0.7178,2.41195 -1.5218,5.2546 v 0 q -0.402,1.60796 -0.402,3.53177 0,1.8951 -0.402,3.53178 v 0 q -0.603,2.00995 -1.9238,3.01493 -1.2921,1.00498 -1.8951,3.64663 v 0 q -0.402,1.20597 -0.3159,2.5268 0.1149,1.29211 -0.086,2.5268 v 0 q -0.8327,4.82389 -1.9238,10.48047 -1.1198,5.65659 -2.1248,11.11218 v 0 q -1.005,4.65161 -2.1248,8.87251 -1.1199,4.24962 -2.7278,7.86753 v 0 q -1.608,-0.20099 -3.216,0.91884 -1.6366,1.11983 -3.2446,1.52182 v 0 q -1.407,0.40199 -2.7278,0.40199 -1.2921,0 -2.5268,1.00498 v 0 q -1.407,1.40697 -3.6179,3.73277 -2.2397,2.32581 -3.8476,2.7278 v 0 q -1.407,0.40199 -2.5268,0 -1.0911,-0.40199 -2.1248,-0.60299 v 0 q -1.608,0 -3.1298,0.11485 -1.4931,0.0861 -3.5318,-0.11485 v 0 q -0.804,-2.00995 -0.603,-4.33576 0.201,-2.3258 0.9189,-4.53675 0.7178,-2.23966 1.6079,-4.36447 0.9189,-2.0961 1.3208,-4.13477 v 0 q 0.402,-1.40696 0.5169,-3.01493 0.086,-1.60796 0.6891,-3.24464 v 0 q 0.603,-1.80895 1.9238,-3.33078 1.3209,-1.49311 1.9238,-3.53177 v 0 q 0.804,-2.21095 2.01,-5.2546 1.206,-3.01493 1.407,-5.02488 v 0 q 0.402,-2.44066 -0.086,-4.65161 -0.5168,-2.21095 0.2872,-4.8526 v 0 q 0.4019,-1.20598 1.1198,-2.12481 0.7178,-0.89012 1.1198,-2.5268 v 0 q 0.603,-2.21095 0.804,-4.73775 0.201,-2.5268 0.603,-4.93874 v 0 q 0.402,-2.21095 0.804,-4.33576 0.402,-2.12481 1.0049,-4.33576 v 0 q 0.603,-2.64165 1.3209,-4.96746 0.6891,-2.29709 1.2059,-4.53675 0.5169,-2.21095 0.5169,-4.33576 0,-2.12481 -1.2347,-4.53675 v 0 q -1.206,-2.23967 -3.2159,-3.24464 -2.01,-1.00498 -4.4506,-1.20597 -2.412,-0.201 -5.2546,0 -2.814,0.20099 -5.4269,0.20099 v 0 q -1.0337,-0.60299 -1.8377,-2.21095 -0.804,-1.60796 -2.2109,-2.23966 v 0 q -2.412,-0.80398 -5.3408,-0.80398 -2.9288,0 -4.3644,-2.21095 v 0 q -1.206,-3.01493 -0.086,-5.85758 1.1199,-2.81394 2.7278,-4.04862 v 0 q 7.4656,-1.20598 15.5341,0.11485 8.0972,1.32083 16.1658,1.11983 v 0 q 3.2159,-0.20099 6.4605,-1.23468 3.216,-1.00498 6.6616,0 v 0 q 1.005,0.4307 3.5318,1.32082 2.5268,0.91884 3.5317,1.32083 v 0 q 1.005,0.20099 2.01,0 1.005,-0.201 2.0387,0 v 0 q 1.6079,0 3.101,0.48813 1.5219,0.51685 3.1298,0.51685 v 0 q 2.0387,0 2.9288,-0.0861 0.9189,-0.11486 1.6367,-0.31585 0.6891,-0.201 1.4931,-0.51685 0.8327,-0.28714 2.6417,-0.48813 v 0 q 1.6079,-0.201 3.2159,0.20099 1.6367,0.40199 3.2446,0.40199 v 0 q 4.4506,0.201 8.5854,-1.11983 4.1348,-1.29211 8.1547,-1.72281 v 0 q 2.2396,-0.201 4.5654,-0.0861 2.2971,0.0861 4.3358,1.32083 z m 20.5877,74.68415 v 0 q -2.814,5.85758 -4.5368,13.12213 -1.7228,7.26455 -3.3308,13.12213 v 0 q -0.804,2.84264 -3.1298,4.13476 -2.3258,1.32083 -5.1684,1.83767 -2.8139,0.48813 -5.6279,0.68913 -2.8426,0.20099 -4.6516,0.80398 v 0 q -1.8089,0.6317 -3.9338,1.92381 -2.1248,1.32083 -4.1347,2.44066 -2.0387,1.09112 -3.7328,1.6941 -1.7228,0.60299 -2.5268,-0.20099 v 0 q -0.804,-0.80398 -0.201,-3.73277 0.603,-2.92879 2.01,-6.74771 1.4069,-3.84762 3.3308,-7.98238 1.9238,-4.13477 3.7327,-7.5804 v 0 q 1.206,-2.41195 1.608,-6.54671 0.402,-4.13476 0.603,-6.97741 v 0 q 0,-1.00498 -0.402,-1.92381 -0.402,-0.89013 -0.201,-1.8951 v 0 q 0.201,-1.03369 1.3208,-2.64166 1.1198,-1.60796 1.9238,-3.21592 v 0 q 1.407,-3.64663 1.7228,-8.38438 0.2872,-4.73775 1.4932,-7.98239 v 0 q 0.4019,-1.00498 1.1198,-1.92381 0.7178,-0.89013 1.1198,-1.8951 v 0 q 0.402,-1.23469 0.201,-3.04365 -0.201,-1.80896 -0.201,-3.41692 v 0 q 0,-2.64165 1.0911,-5.97244 1.1199,-3.33078 2.1248,-6.46056 1.005,-3.12979 1.5219,-6.05858 0.4881,-2.92879 -0.3159,-5.13974 v 0 q -0.603,-3.04364 -0.603,-4.04862 0,-1.00498 -0.402,-1.40697 v 0 q -1.0049,-1.00497 -0.6891,-1.32082 0.2871,-0.28714 -0.9188,-1.09112 v 0 q -1.005,-1.00498 -1.9238,-1.72282 -0.9189,-0.71784 -2.3258,-1.72282 v 0 q -1.206,-0.80398 -2.5268,-1.52182 -1.2922,-0.68913 -1.4931,-2.49808 v 0 q 1.8089,-1.63668 3.1297,-2.23967 1.2921,-0.60298 2.5268,-0.68912 1.206,-0.11486 2.613,0.20099 1.4069,0.28714 3.4169,0.48813 v 0 q 3.4456,0.40199 6.1734,0.201 2.7278,-0.201 6.7477,-0.201 v 0 q 2.6417,0 5.9725,0.51685 3.3307,0.48813 5.9437,0.89012 v 0 q 2.6416,0.40199 5.3694,0.11485 2.7278,-0.31585 4.9388,0.0861 v 0 q 1.8089,0.4307 3.2159,0.91883 1.4357,0.51685 3.4456,0.51685 v 0 q 5.6566,0 10.7964,-1.23469 5.1397,-1.20597 9.7913,-0.40199 v 0 q 1.608,0.40199 3.5318,1.03369 1.9238,0.60299 3.7328,1.20597 v 0 q 1.8376,0.60299 2.7278,0.89013 0.9188,0.31585 2.5268,0.91883 v 0 q 1.6079,0.60299 3.3307,1.92381 1.7229,1.32083 3.5318,2.92879 v 0 q 2.8427,2.00996 5.7427,4.22091 2.9288,2.23966 3.9625,5.45559 v 0 q 0.402,1.00497 1.0911,3.24464 0.7179,2.21095 0.7179,3.21592 v 0 q 0.201,2.64166 -1.407,5.2546 v 0 q 1.608,2.41194 1.206,5.34073 -0.402,2.92879 -1.9238,5.85758 -1.5219,2.92879 -3.7328,5.57045 -2.211,2.61294 -4.0486,4.4219 v 0 q -3.015,2.84265 -6.5467,4.96745 -3.5318,2.0961 -7.5804,4.13477 v 0 q -2.211,1.00497 -4.2209,2.5268 -2.0387,1.4931 -3.8477,2.3258 v 0 q -1.0049,0.40199 -1.1198,0.20099 -0.086,-0.20099 -1.2921,0 v 0 q -4.0486,0.80399 -7.8963,2.81394 -3.8189,2.00995 -8.0685,3.01493 v 0 q -1.005,0.43071 -2.2109,0.31585 -1.206,-0.0861 -2.2397,0.11486 v 0 q -3.0149,0.40199 -5.9437,1.4931 -2.9288,1.11984 -5.9437,1.52183 v 0 q -2.8427,0.40199 -5.1685,0.40199 -2.3258,0 -4.9387,0.80398 z m 9.9062,-44.21899 v 0 q -0.8327,2.84265 -1.3209,5.65659 -0.5168,2.84265 -1.1198,5.65658 v 0 q -0.402,1.80896 -1.3208,4.24962 -0.8901,2.41194 -1.4931,4.73775 -0.603,2.3258 -0.402,4.13476 0.201,1.80896 2.0099,2.44066 v 0 q 1.005,0.20099 1.9238,-0.22971 0.8902,-0.40199 2.1249,-0.60299 v 0 q 0.8039,0 1.6941,0.31585 0.9188,0.28714 1.9238,0.0861 v 0 q 7.4655,-0.60298 13.8399,-2.61294 6.3458,-2.00995 7.9824,-8.26952 v 0 q 0.804,-0.40199 1.4931,-0.71784 0.7179,-0.28714 1.7229,-0.68913 v 0 q 3.0149,-3.24464 5.1397,-8.90122 2.1248,-5.65659 2.5268,-10.27948 v 0 q 0,-1.63668 -1.3208,-3.53178 -1.2921,-1.92381 -1.6941,-2.92879 v 0 q -0.402,-0.8327 -1.8377,-1.72282 -1.407,-0.91883 -3.2159,-1.80896 -1.809,-0.91883 -3.7328,-1.52182 -1.9238,-0.60298 -2.9288,-0.80398 v 0 q -2.2109,-0.40199 -3.6466,0.0861 -1.407,0.51685 -3.4169,0.71784 v 0 q -2.8427,0.201 -5.2546,0 -2.412,-0.20099 -4.2497,1.60796 v 0 q -0.6029,3.64664 -2.5268,7.37941 -1.8951,3.73277 -2.9,7.55168 z m 122.521,-30.26416 h 26.876 q 1.6079,0.40199 3.2159,0.40199 1.608,0 3.2446,0.40199 v 0 q 0.603,0 1.206,0.40199 0.603,0.40199 1.206,0.60299 v 0 q 0.603,0.20099 1.206,0 0.6029,-0.201 1.2059,0 v 0 q 4.6516,1.20597 7.4943,3.73277 2.8139,2.5268 5.6279,6.14471 v 0 q 1.2346,2.03867 3.0436,4.76647 1.809,2.72779 3.0149,6.05857 1.2347,3.33078 1.4357,6.9487 0.201,3.64663 -1.4357,7.26455 v 0 q -0.402,1.03369 -1.2059,2.5268 -0.804,1.52182 -1.608,3.12978 v 0 q -1.206,2.23967 -3.0436,4.65161 -1.809,2.41195 -3.819,3.41692 v 0 q -1.6079,1.03369 -2.7278,1.83767 -1.1198,0.80399 -2.7277,1.60797 v 0 q -2.814,1.00497 -5.5418,2.92879 -2.7278,1.92381 -5.5704,3.12978 v 0 q -1.005,0.40199 -2.1248,0.51685 -1.0911,0.0861 -2.0961,0.48813 v 0 q -1.4357,0.80398 -2.2397,2.21095 -0.804,1.43568 -3.0149,2.03867 v 0 q 5.0536,1.20597 9.2745,5.54173 4.2496,4.33576 6.4606,8.98736 v 0 q 1.0049,2.81394 2.8426,5.0536 1.809,2.21095 1.608,5.0536 v 0 q 1.4069,1.20597 2.3258,3.12979 0.8901,1.8951 1.5218,4.13476 0.603,2.21095 1.0911,4.53675 0.5169,2.32581 1.3208,4.13476 v 0 q 1.206,2.61294 2.613,4.33576 1.4357,1.72282 3.0436,3.24464 1.608,1.49311 3.2159,3.21593 1.6367,1.72282 2.8427,4.33576 v 0 q 0.804,-0.201 1.2921,-0.48814 0.5169,-0.31585 1.5218,-0.11485 v 0 q 3.0437,2.23966 6.7764,3.44564 3.7328,1.20597 9.1884,2.00995 v 0 q 4.6229,0.80398 8.7577,0.51685 4.1634,-0.31585 8.5853,-1.11984 v 0 q 1.4357,-0.20099 3.5318,-1.11983 2.1248,-0.89012 4.2496,-1.49311 2.1248,-0.60298 3.7328,-0.51684 1.608,0.11485 1.608,2.12481 v 0 q 0,1.40696 -1.809,3.41692 -1.8089,2.03867 -3.2159,3.04364 v 0 q -3.4457,2.41195 -7.8963,3.84763 -4.4219,1.40697 -9.2745,2.29709 -4.8526,0.91884 -9.9062,1.32083 -5.0249,0.40199 -9.4755,0.60298 v 0 q -2.8426,0 -5.1397,-0.89012 -2.3258,-0.91884 -4.1635,-1.32083 v 0 q -4.0199,-0.60298 -7.1497,-1.40696 -3.1298,-0.8327 -5.9724,-2.44066 v 0 q -2.412,-1.40697 -4.2209,-3.93377 -1.809,-2.5268 -5.0536,-3.12979 v 0 q -5.2546,-4.6516 -10.5092,-9.38935 -5.2259,-4.73775 -8.2695,-11.8013 v 0 q -1.005,-1.80896 -2.211,-3.53178 -1.2059,-1.72282 -1.8376,-3.73277 v 0 q -0.603,-1.43568 -0.6892,-3.04365 -0.1148,-1.60796 -0.5168,-3.61791 v 0 q -0.402,-2.23967 -1.206,-4.76647 -0.804,-2.49808 -1.608,-4.73774 v 0 q -0.201,-0.60299 -0.6029,-1.20598 -0.402,-0.60298 -0.603,-1.20597 v 0 q -0.402,-1.20597 -0.804,-2.92879 -0.4307,-1.72282 -1.4357,-2.72779 v 0 q -1.005,-0.80399 -3.3308,-1.80896 -2.3258,-1.00498 -3.9337,-1.43568 v 0 q -2.211,-0.40199 -4.3358,0.20099 -2.1248,0.6317 -3.9338,0.8327 v 0 q -2.6129,0.40199 -5.0536,0.0861 -2.4119,-0.28714 -4.0199,0.31585 v 0 q -2.8426,1.00497 -4.6516,5.22588 -1.8089,4.24961 -2.2396,8.90122 v 0 q -0.804,4.65161 -2.412,8.98737 -1.6079,4.33576 -2.6129,8.38438 v 0 q -0.804,2.61294 -2.6417,4.33576 -1.8089,1.72281 -5.0536,1.29211 v 0 q -1.6079,-0.201 -2.4981,-0.28714 -0.9188,-0.11485 -2.3258,-0.91883 v 0 q -1.0049,0.40199 -3.5317,1.92381 -2.5268,1.52182 -3.5318,2.12481 v 0 q -6.6616,2.00995 -7.5804,-1.00498 -0.9189,-3.04364 0.7178,-9.70521 v 0 q 1.005,-4.2209 3.1298,-8.26952 2.0961,-4.04862 2.9288,-6.86256 v 0 q 0.402,-1.80896 0.2871,-3.33078 -0.086,-1.52182 -0.2871,-2.92879 -0.2297,-1.40697 -0.2297,-2.5268 0,-1.11983 0.8327,-2.12481 v 0 q 0.201,-2.21095 1.206,-3.53177 1.0049,-1.32083 1.4069,-3.53178 v 0 q 0.402,-2.00995 1.005,-4.24962 0.603,-2.21095 0.804,-4.2209 v 0 q 0.201,-2.44066 0.3158,-4.53675 0.086,-2.12481 1.3209,-4.96746 v 0 q 1.0049,-2.61294 2.0961,-5.34074 1.1198,-2.72779 1.5218,-5.34073 v 0 q 0.402,-2.03867 0.5168,-4.13476 0.086,-2.12481 0.8901,-4.16348 v 0 q 0.402,-1.60796 1.7229,-2.61294 1.3208,-1.00498 1.7228,-2.61294 v 0 q 0.201,-1.23469 -0.201,-2.23966 -0.402,-1.00498 0,-2.00996 v 0 q 1.206,-4.04862 0.804,-6.37442 -0.402,-2.29709 -1.3209,-3.81891 -0.8901,-1.52183 -1.6079,-2.92879 -0.7179,-1.40697 -0.1149,-3.84763 v 0 q 1.0337,-0.201 1.8377,-1.6941 0.804,-1.52183 2.2109,-1.92382 v 0 q 0.804,-0.20099 3.0437,-0.31585 2.2109,-0.0861 4.8239,-0.20099 2.6416,-0.0861 5.0536,0 2.4119,0.11485 3.8476,0.11485 v 0 q 1.608,0.201 4.0199,-0.11485 2.4407,-0.28714 5.0536,-0.40199 2.6417,-0.0861 4.9388,-0.0861 2.3258,0 3.9337,0.80398 z m -3.8189,51.48353 v 0 q 1.608,0 3.1298,-0.80398 1.5218,-0.83269 2.9288,-0.4307 v 0 q 2.0099,0.4307 4.0199,0.6317 2.0387,0.20099 4.4506,0.60298 v 0 q 1.005,0.201 2.01,-0.20099 1.0336,-0.40199 2.6416,-0.201 v 0 q 3.2159,-2.44066 5.7427,-3.64663 2.5268,-1.20597 4.7378,-4.8526 v 0 q 1.0337,-1.80896 2.2396,-3.53178 1.206,-1.72282 1.608,-2.92879 v 0 q 1.407,-4.62289 -0.402,-7.95367 -1.8089,-3.33078 -3.4456,-5.97244 v 0 q -2.01,-3.01493 -3.8189,-4.33576 -1.809,-1.32082 -6.0586,-0.91883 v 0 q -3.4456,0.20099 -7.0636,-0.0861 -3.6466,-0.31585 -6.9774,-0.11486 -3.3307,0.201 -5.9437,1.20597 -2.6416,1.0337 -3.8476,3.64664 v 0 q -1.005,3.01493 -2.412,6.66156 -1.4069,3.64663 -2.6416,7.3794 -1.206,3.73277 -2.01,7.55168 -0.8039,3.84763 -0.8039,7.49426 v 0 q 3.0436,-0.4307 6.0585,0.28714 3.015,0.71784 5.8576,0.51684 z m 68.4246,43.58729 v 0 q 0.4307,-4.62289 3.1298,-8.35567 2.7278,-3.73277 4.1634,-7.78139 v 0 q 0.804,-2.64165 1.0912,-5.54173 0.3158,-2.92879 0.402,-5.85758 0.1148,-2.92879 0.5168,-5.85758 0.402,-2.92879 1.407,-5.77144 v 0 q -1.005,-1.80896 -0.804,-4.01991 0.201,-2.23966 0.201,-4.6516 v 0 q 1.005,-1.40697 1.6079,-3.24464 0.603,-1.80896 2.8427,-2.41195 v 0 q 2.0099,-4.45061 2.0099,-9.18836 0,-4.73775 1.005,-9.79135 v 0 q 0.201,-1.00497 0.804,-1.80896 0.603,-0.80398 1.005,-1.80895 v 0 q 1.4357,-4.24962 1.4357,-8.98737 0,-4.76646 1.6079,-8.98737 v 0 q 1.206,-0.40199 3.015,-1.32082 1.8376,-0.91884 3.7327,-1.80896 1.9238,-0.91884 3.7615,-1.52182 1.809,-0.60299 3.2159,-0.40199 v 0 q 1.005,0.40199 2.01,1.11983 1.0337,0.68912 2.4407,1.6941 v 0 q 1.0049,0.6317 1.9238,1.43568 0.8901,0.80398 1.8951,1.40697 v 0 q 0.8039,0.40199 2.1248,0.71784 1.3208,0.28714 1.7228,0.68913 v 0 q 0.201,0.20099 1.3208,1.40697 1.0911,1.23468 2.211,2.64165 1.1198,1.40697 2.1248,2.72779 1.005,1.29212 1.206,1.69411 v 0 q 0.2009,1.23468 -0.201,2.72779 -0.402,1.52183 -1.1199,3.04365 -0.6891,1.52182 -1.4069,3.01493 -0.7179,1.52182 -1.1199,2.72779 v 0 q -0.603,2.23967 -1.2059,4.33576 -0.603,2.12481 -1.608,4.36447 v 0 q -1.005,2.61294 -2.211,6.05858 -1.2346,3.41692 -1.6366,7.26455 v 0 q -0.402,2.81393 -2.0961,4.2209 -1.7228,1.43568 -2.3258,4.04862 v 0 q -0.402,1.80896 -0.402,3.84763 0,2.00995 0.086,3.93376 0.1149,1.8951 0,3.73278 -0.086,1.80896 -0.8901,3.41692 v 0 q -0.6317,1.00498 -1.8377,1.52182 -1.206,0.51685 -2.0099,1.52182 v 0 q -1.206,2.00996 -2.1248,5.02489 -0.9189,3.04364 -1.5219,6.37442 -0.603,3.33078 -0.4881,6.66157 0.086,3.33078 1.0911,5.94372 v 0 q -1.005,3.24464 -3.5318,5.65658 -2.498,2.44066 -5.9437,3.73277 -3.4456,1.32083 -7.3794,1.43568 -3.9337,0.0862 -7.9537,-1.32082 v 0 q -1.6366,-2.41195 -3.8476,-4.53676 -2.2109,-2.1248 -3.4456,-5.16845 z m 65.8403,6.66156 v 0 q -4.2496,1.43568 -7.4655,-1.09112 -3.2446,-2.52679 -4.0486,-5.97243 v 0 q -0.402,-1.60796 0,-4.93874 0.402,-3.33078 1.2059,-5.34074 v 0 q 0.804,-2.23966 3.4457,-5.25459 2.6129,-3.04365 4.0199,-6.86256 v 0 q 1.407,-3.64663 2.3258,-6.97741 0.9188,-3.33078 2.7278,-5.34074 v 0 q 1.407,-1.40696 3.0149,-2.5268 1.6367,-1.11983 1.8377,-2.92879 v 0 q 0,-1.60796 -0.9188,-2.81393 -0.9189,-1.23469 -0.6892,-3.24464 v 0 q 0,-1.80896 1.0911,-4.65161 1.1199,-2.81394 2.1249,-5.02488 v 0 q 2.2109,-4.85261 3.4456,-9.90621 v 0 q 0.402,-1.40696 0.6891,-3.33078 0.3159,-1.92381 0.7179,-2.92879 v 0 q 0.6029,-0.80398 1.2921,-2.61294 0.7178,-1.83767 1.7228,-3.64663 1.005,-1.80896 2.2396,-3.33078 1.206,-1.52182 2.613,-2.12481 v 0 q 1.608,-0.60298 3.5318,-0.89012 1.9238,-0.31585 3.5317,-1.11983 v 0 q 1.809,-0.60299 2.211,-1.40697 0.402,-0.80398 2.0387,-1.60796 v 0 q 1.2059,-0.40199 2.5268,-0.40199 1.2921,0 2.7278,-0.43071 v 0 q 1.6079,-0.60298 3.4169,-1.80896 1.8089,-1.20597 4.2496,0.201 v 0 q 1.005,0.60298 2.0099,3.64663 1.005,3.01493 2.01,5.65658 v 0 q 0.402,1.40697 1.1198,3.41693 0.7179,2.00995 1.3209,4.13476 0.6029,2.12481 1.2059,3.84762 0.603,1.72282 1.005,2.5268 v 0 q 1.005,2.00996 1.407,4.22091 0.402,2.23966 1.2059,4.04862 v 0 q 1.0337,2.00995 2.0387,3.84763 1.005,1.80895 2.01,4.0199 v 0 q 1.0049,2.23967 1.8089,4.24962 0.8327,2.00995 2.0387,4.24962 v 0 q 0.804,1.60796 2.4119,2.92879 1.608,1.29211 2.01,2.92879 v 0 q 0.603,1.60796 0,3.53177 -0.603,1.8951 -0.201,3.53178 v 0 q 0.603,2.21095 2.6417,3.61792 2.0099,1.40697 3.6179,3.04364 v 0 q 1.0049,1.20597 1.2347,2.41195 0.2009,1.20597 1.8089,1.60796 v 0 q 0.402,-3.81891 0.8901,-6.66156 0.5169,-2.81394 1.1199,-5.54173 0.603,-2.7278 1.2059,-5.65659 0.603,-2.92879 1.005,-6.57542 v 0 q 2.0387,-2.61294 3.6466,-4.93874 1.608,-2.32581 1.407,-6.14472 v 0 q -0.201,-1.20597 -0.6891,-2.44066 -0.5169,-1.20597 -0.3159,-2.61294 v 0 q 0.201,-2.00995 0.804,-3.64663 0.603,-1.60796 1.608,-4.01991 v 0 q 0.6317,-1.60796 1.0337,-3.33078 0.402,-1.72281 1.005,-3.73277 v 0 q 0.6029,-1.63668 1.0911,-2.64165 0.5168,-1.00498 1.1198,-1.8951 0.603,-0.91884 1.005,-2.03867 0.402,-1.09112 0.804,-3.33078 v 0 q 0.6029,-3.41692 0.6029,-5.85758 0,-2.41195 1.0337,-4.82389 v 0 q 1.608,-3.64663 5.1398,-6.17343 3.5318,-2.5268 6.7477,-4.13476 v 0 q 5.6566,0.20099 9.3032,2.92879 3.6179,2.72779 4.6516,6.5467 v 0 q 1.407,3.64664 -0.201,5.97244 -1.6367,2.3258 -3.2446,5.13974 v 0 q -1.005,1.80896 -1.5219,3.44563 -0.4881,1.60797 -0.8039,3.12979 -0.2872,1.49311 -0.603,3.12979 -0.2872,1.60796 -1.1199,3.61791 v 0 q -0.6029,2.00996 -1.8089,3.33078 -1.206,1.32083 -1.608,2.7278 v 0 q 0.603,2.84265 0.5169,4.65161 -0.1149,1.80895 -0.6317,3.33078 -0.4882,1.52182 -1.005,3.01493 -0.4881,1.52182 -0.8901,3.33078 v 0 q -0.402,1.43568 -0.402,2.84265 0,1.40697 -0.402,2.61294 v 0 q -0.6317,2.44066 -1.6367,4.45061 -1.005,2.00995 -2.0099,3.81891 v 0 q -1.407,3.04365 -3.1298,5.65659 -1.7228,2.64165 -2.1248,7.06355 v 0 q -0.201,2.84265 -0.2872,4.96746 -0.1148,2.12481 -0.201,3.93377 -0.1148,1.80895 -0.6317,3.81891 -0.4881,2.03867 -1.2921,4.8526 v 0 q -0.402,1.60796 -1.1198,3.12979 -0.7179,1.52182 -1.1198,3.12978 v 0 q -1.206,5.2546 -3.417,7.98239 -2.2109,2.7278 -6.6615,5.54173 v 0 q -2.4407,0.60299 -4.8526,1.20597 -2.412,0.6317 -4.7378,0.6317 -2.3258,0 -4.3357,-0.71784 -2.0387,-0.71784 -3.4457,-2.92879 v 0 q -1.005,-1.60796 -2.1248,-4.73775 -1.0911,-3.12978 -2.5268,-6.17343 v 0 q -0.603,-1.40696 -1.2921,-2.72779 -0.7178,-1.29211 -1.1198,-2.7278 v 0 q -1.005,-2.21094 -1.3209,-3.81891 -0.2871,-1.60796 -1.2921,-4.45061 v 0 q -1.4356,-4.45061 -4.4506,-6.66156 -3.0149,-2.21095 -5.2546,-4.85261 v 0 q -0.201,-2.00995 -0.603,-3.61791 -0.402,-1.60797 -1.8089,-2.64166 v 0 q -0.402,-0.40199 -1.005,-0.48813 -0.603,-0.11485 -1.0337,-0.71784 v 0 q -0.603,-0.80398 -0.804,-1.92381 -0.201,-1.09112 -0.8039,-1.69411 v 0 q -0.402,-0.40199 -1.206,-1.83767 -0.804,-1.40697 -1.5218,-2.81393 -0.6892,-1.40697 -1.4932,-2.5268 -0.8326,-1.11983 -1.2346,-0.91884 v 0 q -1.005,0 -1.8951,1.63668 -0.9189,1.60796 -1.8377,3.61791 -0.8901,2.00996 -1.6941,3.93377 -0.8327,1.92381 -1.4357,2.7278 v 0 q -1.005,1.40696 -1.4931,4.13476 -0.5169,2.72779 -1.3208,4.36447 v 0 q -1.407,2.41195 -2.5268,4.82389 -1.1199,2.44066 0.5168,5.25459 v 0 q 0,1.40697 -0.7178,2.32581 -0.7179,0.91883 -0.3159,2.92879 v 0 q -1.2059,2.21095 -2.2971,5.0536 -1.1198,2.81393 -2.3258,6.25957 v 0 q -0.603,2.00995 -1.0049,4.13476 -0.4308,2.12481 -1.0337,4.01991 -0.603,1.92381 -1.6941,3.33078 -1.1199,1.43568 -2.9288,1.63668 v 0 q -2.4407,0.40199 -4.0487,-0.60299 -1.6079,-1.03369 -3.0149,-2.3258 -1.4357,-1.32083 -2.8426,-2.84265 -1.407,-1.49311 -3.015,-2.32581 z m 233.3844,-101.93338 v 0 q -0.402,3.21593 -2.3258,4.01991 -1.9238,0.80398 -3.9338,1.83767 v 0 q -1.4069,1.00498 -2.0099,2.61294 -0.6317,1.60797 -1.6367,2.41195 v 0 q -1.005,1.00497 -2.9288,1.52182 -1.8951,0.51684 -3.1298,0.91884 v 0 q -3.4169,1.00497 -7.1497,1.00497 -3.7327,0 -6.5754,0.40199 v 0 q -1.6079,0.40199 -3.2159,1.80896 -1.6367,1.40697 -3.4456,2.23966 v 0 q -1.809,0.60299 -2.814,1.00498 -1.005,0.40199 -1.7228,1.00498 -0.7178,0.60298 -1.3208,1.52182 -0.603,0.89012 -1.608,2.49809 v 0 q -1.005,1.83767 -1.005,5.25459 0,3.44564 -0.603,5.65659 v 0 q -0.6029,1.80895 -1.3208,4.24961 -0.7178,2.41195 -1.5218,5.2546 v 0 q -0.402,1.60796 -0.402,3.53177 0,1.8951 -0.402,3.53178 v 0 q -0.603,2.00995 -1.9238,3.01493 -1.2921,1.00498 -1.8951,3.64663 v 0 q -0.402,1.20597 -0.3158,2.5268 0.1148,1.29211 -0.086,2.5268 v 0 q -0.8327,4.82389 -1.9238,10.48047 -1.1198,5.65659 -2.1248,11.11218 v 0 q -1.005,4.65161 -2.1248,8.87251 -1.1198,4.24962 -2.7278,7.86753 v 0 q -1.608,-0.20099 -3.2159,0.91884 -1.6367,1.11983 -3.2447,1.52182 v 0 q -1.4069,0.40199 -2.7278,0.40199 -1.2921,0 -2.5268,1.00498 v 0 q -1.4069,1.40697 -3.6179,3.73277 -2.2397,2.32581 -3.8476,2.7278 v 0 q -1.407,0.40199 -2.5268,0 -1.0911,-0.40199 -2.1248,-0.60299 v 0 q -1.608,0 -3.1298,0.11485 -1.4931,0.0861 -3.5318,-0.11485 v 0 q -0.804,-2.00995 -0.603,-4.33576 0.201,-2.3258 0.9189,-4.53675 0.7178,-2.23966 1.6079,-4.36447 0.9189,-2.0961 1.3209,-4.13477 v 0 q 0.4019,-1.40696 0.5168,-3.01493 0.086,-1.60796 0.6891,-3.24464 v 0 q 0.603,-1.80895 1.9238,-3.33078 1.3209,-1.49311 1.9239,-3.53177 v 0 q 0.8039,-2.21095 2.0099,-5.2546 1.206,-3.01493 1.407,-5.02488 v 0 q 0.402,-2.44066 -0.086,-4.65161 -0.5168,-2.21095 0.2872,-4.8526 v 0 q 0.402,-1.20598 1.1198,-2.12481 0.7178,-0.89012 1.1198,-2.5268 v 0 q 0.603,-2.21095 0.804,-4.73775 0.201,-2.5268 0.603,-4.93874 v 0 q 0.402,-2.21095 0.804,-4.33576 0.402,-2.12481 1.005,-4.33576 v 0 q 0.6029,-2.64165 1.3208,-4.96746 0.6891,-2.29709 1.206,-4.53675 0.5168,-2.21095 0.5168,-4.33576 0,-2.12481 -1.2347,-4.53675 v 0 q -1.206,-2.23967 -3.2159,-3.24464 -2.01,-1.00498 -4.4506,-1.20597 -2.412,-0.201 -5.2546,0 -2.814,0.20099 -5.4269,0.20099 v 0 q -1.0337,-0.60299 -1.8377,-2.21095 -0.8039,-1.60796 -2.2109,-2.23966 v 0 q -2.412,-0.80398 -5.3407,-0.80398 -2.9288,0 -4.3645,-2.21095 v 0 q -1.206,-3.01493 -0.086,-5.85758 1.1199,-2.81394 2.7278,-4.04862 v 0 q 7.4656,-1.20598 15.5341,0.11485 8.0973,1.32083 16.1658,1.11983 v 0 q 3.2159,-0.20099 6.4605,-1.23468 3.216,-1.00498 6.6616,0 v 0 q 1.005,0.4307 3.5318,1.32082 2.5268,0.91884 3.5318,1.32083 v 0 q 1.0049,0.20099 2.0099,0 1.005,-0.201 2.0387,0 v 0 q 1.6079,0 3.1011,0.48813 1.5218,0.51685 3.1297,0.51685 v 0 q 2.0387,0 2.9288,-0.0861 0.9189,-0.11486 1.6367,-0.31585 0.6891,-0.201 1.4931,-0.51685 0.8327,-0.28714 2.6417,-0.48813 v 0 q 1.6079,-0.201 3.2159,0.20099 1.6367,0.40199 3.2446,0.40199 v 0 q 4.4506,0.201 8.5854,-1.11983 4.1348,-1.29211 8.1547,-1.72281 v 0 q 2.2396,-0.201 4.5654,-0.0861 2.2971,0.0861 4.3358,1.32083 z m 52.6895,21.19066 v 0 q 1.809,0.80398 2.412,2.12481 0.6029,1.29211 0.9188,2.72779 0.3158,1.40697 0.7178,2.81394 0.402,1.40697 2.01,2.21095 v 0 q 0.402,0.4307 1.407,1.03369 1.0049,0.60298 2.2109,1.29211 1.2347,0.71784 2.3258,1.23469 1.1198,0.48813 1.7228,0.28713 v 0 q 1.206,-0.20099 2.211,-1.80895 1.0337,-1.60797 1.7228,-3.73278 0.7178,-2.1248 0.9188,-4.33575 0.201,-2.23967 -0.201,-3.64664 v 0 q -0.402,-0.60298 -2.2396,-1.72281 -1.809,-1.09112 -2.814,-1.52183 v 0 q -2.8139,-1.00497 -5.2546,-2.41194 -2.4119,-1.40697 -5.2545,-2.41194 v 0 q -1.206,-0.402 -2.5268,-1.32083 -1.2922,-0.91884 -2.4981,-0.91884 v 0 q -0.8327,-0.20099 -1.8377,0.31585 -1.005,0.48813 -2.01,0.48813 v 0 q -1.2059,0.22971 -2.9288,0.11486 -1.7228,-0.11486 -3.5317,0.11485 -1.809,0.201 -3.7328,0.60299 -1.9238,0.40199 -3.3308,1.40697 v 0 q -2.6129,2.21095 -3.7328,4.93874 -1.1198,2.7278 -2.9287,6.17343 v 0 q -0.402,0.80398 -1.407,1.80896 -1.005,1.00498 -1.005,2.41194 v 0 q 0,0.80399 0.6891,1.40697 0.7179,0.6317 1.1199,1.83767 v 0 q 0.603,1.20598 0.804,2.5268 0.2009,1.29212 0.6029,2.29709 v 0 q 0.603,0.6317 1.206,1.11984 0.603,0.51684 1.005,0.91883 v 0 q 0.603,0.60299 0.9188,1.40697 0.3159,0.80398 0.9189,1.20597 v 0 q 1.0049,0.60299 3.5317,2.12481 2.5268,1.52182 4.7378,1.92381 v 0 q 3.8476,0.80399 6.9487,2.5268 3.1298,1.69411 6.1734,2.92879 v 0 q 2.211,1.00498 3.5318,2.32581 1.3208,1.29211 2.3258,2.61294 1.005,1.32082 2.1248,2.5268 1.0911,1.20597 3.1298,1.80895 v 0 q 1.005,0.402 1.8089,0.402 0.804,0 1.809,0.40199 v 0 q 1.005,0.40199 2.0387,1.32082 1.005,0.91884 2.2109,1.92382 v 0 q 0.804,0.80398 1.5218,1.6941 0.6892,0.91884 1.0912,1.72282 v 0 q 0.6029,1.20597 0.8039,3.12978 0.201,1.92382 0.201,3.12979 v 0 q 0.201,4.8526 -0.201,7.66654 -0.4019,2.84265 -1.4069,5.25459 -1.005,2.44066 -2.5268,4.85261 -1.4931,2.41194 -3.3308,6.25957 v 0 q -2.6129,1.20597 -5.4556,2.72779 -2.8139,1.52182 -4.8239,3.12979 v 0 q -1.005,0.80398 -2.8426,2.00995 -1.809,1.20597 -3.216,1.60796 v 0 q -2.8426,1.03369 -6.8625,1.23469 -4.0486,0.201 -7.4656,1.40697 v 0 q -2.0386,0.60298 -4.7664,0.20099 -2.7278,-0.40199 -4.9388,-0.20099 v 0 q -2.6129,0.40199 -4.4506,0.89012 -1.8089,0.51685 -4.2209,0.11485 v 0 q -2.8426,-0.40199 -6.2596,-2.1248 -3.4456,-1.72282 -6.0585,-3.33078 v 0 q -1.005,-0.402 -1.608,-1.11984 -0.6317,-0.68912 -1.6367,-1.29211 v 0 q -1.4069,-0.80398 -2.8139,-1.11983 -1.407,-0.28714 -2.6417,-1.32083 v 0 q -1.2059,-1.00498 -2.2109,-1.8951 -1.005,-0.91883 -2.01,-1.92381 v 0 q -2.4406,-1.60796 -5.3694,-3.33078 -2.9001,-1.72282 -4.1348,-3.53178 v 0 q -0.804,-1.00497 -0.8901,-2.72779 -0.1148,-1.72282 -0.9188,-3.33078 v 0 q -0.402,-1.40697 -1.407,-2.44066 -1.005,-1.00498 -1.206,-2.00996 v 0 q -0.603,-2.81393 0.603,-6.25957 1.206,-3.41692 2.211,-5.85758 v 0 q 3.8476,-0.60298 6.3744,0.71784 2.4981,1.32083 4.3357,3.53178 1.809,2.21095 3.216,4.93874 1.4069,2.7278 2.8426,4.73775 v 0 q 1.608,2.64166 5.0249,4.04862 3.4456,1.40697 6.6616,2.81394 v 0 q 1.2347,0.6317 2.3258,1.11983 1.1198,0.51685 2.1248,0.91884 v 0 q 2.6416,1.00497 4.5367,2.12481 1.9239,1.09111 4.1635,1.29211 v 0 q 2.01,0 3.9338,-0.28714 1.8951,-0.31585 4.3357,-0.71784 v 0 q 2.412,-0.80398 4.8526,-0.68912 2.412,0.0861 4.6229,-0.91884 v 0 q 2.6417,-1.00498 3.0437,-2.44066 0.402,-1.40697 1.8089,-3.81891 v 0 q -0.8039,-3.84763 -1.8089,-5.45559 -1.005,-1.60796 -3.6467,-3.84763 v 0 q -1.0049,-0.80398 -2.3258,-1.29211 -1.2921,-0.51685 -2.3258,-1.11983 v 0 q -4.2209,-2.61294 -9.2745,-5.2546 -5.0536,-2.61294 -11.1121,-3.61791 v 0 q -3.8189,-1.20598 -7.9537,-3.33078 -4.1635,-2.12481 -5.9724,-5.77144 v 0 q -0.603,-0.80399 -0.6892,-1.60797 -0.1148,-0.80398 -0.5168,-1.80896 v 0 q -1.608,-4.04862 -4.5368,-7.66653 -2.9288,-3.64664 -3.9337,-8.29824 v 0 q -0.402,-1.40697 -0.201,-2.92879 0.201,-1.49311 0.4881,-2.92879 0.3158,-1.40697 0.5168,-3.01493 0.201,-1.60797 -0.201,-3.44564 v 0 q 0.804,-0.80398 1.005,-1.60796 0.201,-0.80398 0.603,-1.60797 v 0 q 0.804,-1.20597 1.1198,-2.5268 0.2872,-1.32082 1.6941,-2.52679 v 0 q 1.4357,-1.20598 2.3259,-2.5268 0.9188,-1.29212 1.9238,-2.12481 v 0 q 0.603,-0.40199 1.4069,-0.48813 0.804,-0.11486 1.4357,-0.51685 v 0 q 1.005,-0.60299 1.809,-1.49311 0.804,-0.91883 1.8089,-1.72282 v 0 q 4.0487,-3.04364 9.0735,-5.16845 5.0536,-2.09609 10.3082,-3.33078 v 0 q 0.804,-1.00498 2.613,-1.6941 1.8376,-0.71784 3.9625,-1.00498 2.096,-0.31585 4.1347,-0.51685 2.01,-0.20099 3.4169,-0.40199 v 0 q 6.2596,0.80398 9.9924,2.00996 3.7328,1.20597 7.0635,2.5268 3.3308,1.32082 7.1784,2.5268 3.8477,1.20597 9.9062,2.00995 v 0 q 2.412,1.83767 5.1398,4.33576 2.7278,2.5268 4.7377,5.57044 2.01,3.01493 2.9288,6.34571 0.9189,3.33078 -0.5168,6.77642 v 0 q -1.005,2.00995 -1.608,4.53675 -0.603,2.5268 -1.8089,4.53676 v 0 q -1.005,1.60796 -2.1249,3.84762 -1.1198,2.21095 -2.5268,3.61792 v 0 q -2.8139,2.84265 -7.2645,4.04862 -4.4506,1.20597 -8.6715,0.80398 v 0 q -1.206,-2.00995 -3.7328,-3.41692 -2.5268,-1.43568 -5.0536,-2.92879 -2.5268,-1.52182 -4.6516,-3.44563 -2.1248,-1.92382 -2.7278,-4.73775 v 0 q -0.603,-3.44564 0.3159,-7.26455 0.8901,-3.84763 4.3357,-5.45559 z"
       fill="#ffffff"
       transform="matrix(0.50355829,0,0,0.50355829,0,79.883431)"
       id="path15" />
  </g>
</svg>
