<?xml version="1.0" encoding="UTF-8" standalone="no"?>
<svg
   viewBox="0 0 370 70.00000000000001"
   version="1.1"
   id="svg22"
   sodipodi:docname="logo.svg"
   inkscape:version="1.2.2 (b0a84865, 2022-12-01)"
   xmlns:inkscape="http://www.inkscape.org/namespaces/inkscape"
   xmlns:sodipodi="http://sodipodi.sourceforge.net/DTD/sodipodi-0.dtd"
   xmlns="http://www.w3.org/2000/svg"
   xmlns:svg="http://www.w3.org/2000/svg">
  <defs
     id="defs26" />
  <sodipodi:namedview
     id="namedview24"
     pagecolor="#ffffff"
     bordercolor="#000000"
     borderopacity="0.25"
     inkscape:showpageshadow="2"
     inkscape:pageopacity="0.0"
     inkscape:pagecheckerboard="true"
     inkscape:deskcolor="#d1d1d1"
     showgrid="false"
     inkscape:zoom="3.3675676"
     inkscape:cx="18.85634"
     inkscape:cy="34.891653"
     inkscape:window-width="1390"
     inkscape:window-height="1205"
     inkscape:window-x="3878"
     inkscape:window-y="26"
     inkscape:window-maximized="0"
     inkscape:current-layer="svg22" />
  <g
     transform="matrix(1.0204080724770175,0,0,1.0204080724770175,-16.020407516398752,-16.02040654326178)"
     fill="#ffffff"
     id="g17">
    <g
       id="g15">
      <path
         d="M50,15.7c-18.9,0-34.3,15.4-34.3,34.3S31.1,84.3,50,84.3S84.3,68.9,84.3,50S68.9,15.7,50,15.7z M79.6,60.1   c-4.1,1.4-8.4,2.4-12.7,3.2c0.5-3.9,0.8-7.9,0.9-11.9h13.4C81.2,54.5,80.6,57.4,79.6,60.1z M48.5,32.1c-4,0.1-8,0.4-11.9,0.9   c0.8-4.3,1.9-8.5,3.2-12.7c2.7-0.9,5.6-1.5,8.6-1.7L48.5,32.1L48.5,32.1z M36.2,21.9c-1.2,3.8-2.1,7.7-2.7,11.6   c-3.9,0.7-7.8,1.6-11.6,2.8C24.9,30,30,24.9,36.2,21.9z M21.9,63.8c0.7,0.2,1.4,0.4,2.1,0.6c0.1,0,0.3,0.1,0.4,0.1   c0.7,0,1.3-0.4,1.4-1.1c0.2-0.8-0.2-1.6-1-1.8c-1.5-0.4-3-0.9-4.4-1.3c-0.9-2.7-1.5-5.6-1.7-8.6h12.4c0.8,0,1.5-0.7,1.5-1.5   s-0.7-1.5-1.5-1.5H18.7c0.1-3,0.7-5.9,1.7-8.6c4.1-1.4,8.4-2.4,12.7-3.2c-0.4,2.9-0.7,5.7-0.8,8.6c0,0.8,0.6,1.5,1.4,1.6   c0,0,0,0,0.1,0c0.8,0,1.5-0.6,1.5-1.4c0.1-3.1,0.5-6.2,0.9-9.3c4.1-0.6,8.2-0.9,12.4-1v1.5c0,0.8,0.7,1.5,1.5,1.5s1.5-0.7,1.5-1.5   v-1.6c0.4,0,0.9,0,1.3,0c0.8,0,1.5-0.6,1.5-1.5c0-0.8-0.6-1.5-1.5-1.5c-0.5,0-0.9,0-1.4,0V18.7c3,0.1,5.9,0.7,8.6,1.7   c0.3,1,0.6,2,0.9,3c0.2,0.7,0.8,1.1,1.4,1.1c0.1,0,0.3,0,0.4-0.1c0.8-0.2,1.2-1.1,1-1.9c-0.1-0.2-0.1-0.4-0.2-0.6   c6.4,3,11.5,8.1,14.5,14.3c-0.9-0.3-1.8-0.5-2.8-0.8c-0.8-0.2-1.6,0.3-1.8,1.1c-0.2,0.8,0.3,1.6,1.1,1.8c1.7,0.5,3.4,1,5,1.5   c0.9,2.7,1.5,5.6,1.7,8.6H67.9c0-0.3,0-0.7,0-1c0-0.8-0.7-1.5-1.5-1.5s-1.5,0.7-1.5,1.5c0,0.3,0,0.6,0,1h-11   c-0.8,0-1.5,0.7-1.5,1.5s0.7,1.5,1.5,1.5h11c-0.1,4.2-0.4,8.3-1,12.4c-4.1,0.6-8.2,0.9-12.4,1V54.1c0-0.8-0.7-1.5-1.5-1.5   s-1.5,0.7-1.5,1.5v10.7c-1,0-2,0-2.9-0.1c-0.8,0-1.5,0.6-1.6,1.4c0,0.8,0.6,1.5,1.4,1.6c1,0,2,0.1,3.1,0.1v13.4   c-3-0.1-5.9-0.7-8.6-1.7c-0.6-1.7-1.1-3.4-1.5-5c-0.2-0.8-1-1.3-1.8-1.1c-0.8,0.2-1.3,1-1.1,1.8c0.2,0.9,0.5,1.8,0.8,2.8   C30,75.1,24.9,70,21.9,63.8z M51.5,67.9c4-0.1,7.9-0.4,11.9-0.9c-0.8,4.3-1.9,8.5-3.2,12.7c-2.7,0.9-5.6,1.5-8.6,1.7L51.5,67.9   L51.5,67.9z M63.8,78.1c1.2-3.8,2.1-7.7,2.8-11.6c3.9-0.7,7.8-1.6,11.6-2.8C75.1,70,70,75.1,63.8,78.1z"
         id="path9" />
      <path
         d="M40.4,65.1c0-2.4-1.6-4.4-3.7-5.1c0.5-2.5,2-7.9,6.8-11.8c4.7-3.8,11.2-5.1,19.4-4c0.6,0.1,1.2-0.2,1.5-0.7l4.4-4.7   c1.8-1.9,2.3-4.6,1.3-7.1c-0.9-2.4-3.1-4-5.6-4.1c-0.3,0-0.6,0-0.9,0c-2.5,0.1-4.7,1.7-5.7,4.1c-1,2.5-0.5,5.2,1.3,7.1l2.1,2.3   C53.1,40.4,46.5,42,41.5,46c-5.8,4.7-7.5,11.3-7.9,14c-2.3,0.6-4.1,2.7-4.1,5.2c0,3,2.4,5.4,5.4,5.4S40.4,68.1,40.4,65.1z    M60.7,32.7c0.5-1.3,1.7-2.1,3.1-2.2c0.2,0,0.4,0,0.5,0c1.4,0.1,2.5,0.9,3,2.2c0.4,1.1,0.5,2.7-0.7,4L64,39.5l-2.6-2.8   C60.3,35.4,60.3,33.8,60.7,32.7z M35,67.5c-1.3,0-2.4-1.1-2.4-2.4s1.1-2.4,2.4-2.4s2.4,1.1,2.4,2.4S36.3,67.5,35,67.5z"
         id="path11" />
      <circle
         cx="64.1"
         cy="34.1"
         r="1.7"
         id="circle13" />
    </g>
  </g>
  <g
     id="SvgjsG5305"
     featurekey="nameFeature-0"
     transform="matrix(1.0355937961711978,0,0,1.0355937961711978,88.5639522940419,8.305423214582)"
     fill="#ffffff">
    <path
       d="M22.246 27.344 l1.9531 0 l-0.25391 1.1914 l-10.078 0 l-2.6563 11.543 l-9.8242 0 l2.9688 -12.734 l-1.9922 0 l3.8086 -16.484 l20.742 0 l-1.7188 7.4023 l-10.918 0 l-0.68359 2.8711 l10.059 0 z M54.731257812500004 25.683999999999997 c-0.15625 0.625 -0.33203 1.25 -0.56641 1.8945 l2.1289 0 c-2.4805 7.7539 -8.7891 13.379 -17.441 13.379 c-8.9258 0 -12.402 -5.625 -11.27 -13.379 l-2.0703 0 c0.078125 -0.64453 0.17578 -1.2695 0.3125 -1.8945 c2.0703 -8.9258 8.5352 -15.313 17.93 -15.313 c9.1992 0 12.988 6.4453 10.977 15.313 z M46.1572578125 27.578 l-2.1094 0 c0.19531 -0.64453 0.39063 -1.2695 0.52734 -1.9336 c2.4805 -10.723 -6.1719 -10.41 -8.5938 0.039063 c-0.13672 0.68359 -0.23438 1.3086 -0.33203 1.8945 l2.1094 0 c-1.0156 8.1641 5.6445 7.9883 8.3984 0 z M86.943171875 25.683999999999997 c-0.15625 0.625 -0.33203 1.25 -0.56641 1.8945 l2.1289 0 c-2.4805 7.7539 -8.7891 13.379 -17.441 13.379 c-8.9258 0 -12.402 -5.625 -11.27 -13.379 l-2.0703 0 c0.078125 -0.64453 0.17578 -1.2695 0.3125 -1.8945 c2.0703 -8.9258 8.5352 -15.313 17.93 -15.313 c9.1992 0 12.988 6.4453 10.977 15.313 z M78.369171875 27.578 l-2.1094 0 c0.19531 -0.64453 0.39063 -1.2695 0.52734 -1.9336 c2.4805 -10.723 -6.1719 -10.41 -8.5938 0.039063 c-0.13672 0.68359 -0.23438 1.3086 -0.33203 1.8945 l2.1094 0 c-1.0156 8.1641 5.6445 7.9883 8.3984 0 z M106.6945859375 26.719 l-2.9688 13.359 l-9.9023 0 l3.0469 -13.359 l-1.7773 0 l1.9727 -8.5547 l-7.8125 0 l1.7188 -7.4023 l25.352 0 l-1.6602 7.4023 l-7.793 0 l-1.9141 8.5547 l1.7383 0 z M115.44925 27.266 c1.2695 -5.4492 2.5391 -10.918 3.8086 -16.367 l11.719 0 c7.0117 0 11.914 3.6328 8.6914 11.582 c-0.82031 1.9727 -1.9141 3.5547 -3.1641 4.7852 l1.7773 0 c-3.0664 2.9492 -7.3047 3.9453 -12.188 3.9453 l-2.0313 8.7695 l-9.7266 0 l2.9297 -12.715 l-1.8164 0 z M127.30475 18.145 c-0.41016 1.9141 -0.87891 3.8672 -1.3086 5.8594 c4.8633 -0.25391 6.6797 -5.8594 1.3086 -5.8594 z M143.7549265625 26.719 l-1.7773 0 l3.6328 -15.957 c3.3984 0 9.5313 -0.33203 14.375 0.3125 c4.2773 0.625 8.418 2.207 7.6953 7.3438 c-0.41016 3.1055 -2.793 6.2891 -5.3711 8.3008 l1.7578 0 c-0.46875 0.35156 -0.9375 0.72266 -1.4453 0.97656 l6.6797 12.383 l-11.719 0 l-4.8828 -9.5508 l-2.168 9.5508 l-9.8438 0 z M153.8332265625 17.988 l-1.1914 5.0391 c4.707 0 7.3438 -5.0391 1.1914 -5.0391 z M183.896703125 27.344 l-2.9297 12.734 l-9.8828 0 l2.9297 -12.734 l-1.9922 0 l3.8281 -16.484 l9.8633 0 l-3.7891 16.484 l1.9727 0 z M215.3468984375 27.266 l-2.9102 12.715 l-9.082 0 l-3.8672 -12.715 l-0.44922 0 l-2.9492 12.715 l-9.1992 0 l2.9492 -12.715 l-1.7773 0 l3.7695 -16.367 l10.723 0 l3.1641 10.273 l2.4023 -10.273 l9.2383 0 l-3.7891 16.367 l1.7773 0 z M236.953375 26.719 l-2.9688 13.359 l-9.9023 0 l3.0469 -13.359 l-1.7773 0 l1.9727 -8.5547 l-7.8125 0 l1.7188 -7.4023 l25.352 0 l-1.6602 7.4023 l-7.793 0 l-1.9141 8.5547 l1.7383 0 z M270.6300390625 26.719 c1.1328 4.1016 -2.2656 8.9453 -5.4102 11.074 c-6.1719 4.043 -14.316 3.3984 -20.625 0.15625 l1.8359 -8.125 l3.0273 0 c0.39063 4.1992 9.7852 5.9375 10.742 1.7969 c0.46875 -2.0508 -6.8945 -2.6172 -9.3555 -4.5508 c-0.13672 -0.11719 -0.29297 -0.23438 -0.41016 -0.35156 l-1.7969 0 c-1.9531 -1.8359 -2.1289 -4.2773 -1.5625 -6.8164 c2.3828 -10.41 16.523 -11.445 24.688 -7.3242 l-1.8164 7.9102 l-3.0469 0 c0.19531 -2.9688 -8.7891 -5 -9.6289 -1.4258 c-0.56641 2.7734 8.5352 1.9531 11.055 6.3477 c0.21484 0.39063 0.39063 0.85938 0.50781 1.3086 l1.7969 0 z"
       id="path19" />
  </g>
</svg>
