<?xml version="1.0" encoding="UTF-8" standalone="no"?>
<svg
   viewBox="0 0 280 31.720755"
   version="1.1"
   id="svg22"
   sodipodi:docname="desktop-logo.svg"
   inkscape:version="1.2.2 (b0a84865, 2022-12-01)"
   width="280"
   height="31.720755"
   xmlns:inkscape="http://www.inkscape.org/namespaces/inkscape"
   xmlns:sodipodi="http://sodipodi.sourceforge.net/DTD/sodipodi-0.dtd"
   xmlns="http://www.w3.org/2000/svg"
   xmlns:svg="http://www.w3.org/2000/svg">
  <defs
     id="defs26" />
  <sodipodi:namedview
     id="namedview24"
     pagecolor="#ffffff"
     bordercolor="#000000"
     borderopacity="0.25"
     inkscape:showpageshadow="2"
     inkscape:pageopacity="0.0"
     inkscape:pagecheckerboard="true"
     inkscape:deskcolor="#d1d1d1"
     showgrid="false"
     inkscape:zoom="3.3675676"
     inkscape:cx="-124.57062"
     inkscape:cy="16.183788"
     inkscape:window-width="1390"
     inkscape:window-height="1205"
     inkscape:window-x="3878"
     inkscape:window-y="25"
     inkscape:window-maximized="0"
     inkscape:current-layer="svg22" />
  <g
     id="SvgjsG5305"
     featurekey="nameFeature-0"
     transform="matrix(1.0355938,0,0,1.0355938,-1.4360479,-10.694579)"
     fill="#3454D1">
    <path
       d="m 22.246,27.344 h 1.9531 l -0.25391,1.1914 h -10.078 l -2.6563,11.543 h -9.8242 l 2.9688,-12.734 h -1.9922 l 3.8086,-16.484 h 20.742 l -1.7188,7.4023 h -10.918 l -0.68359,2.8711 h 10.059 z m 32.485258,-1.66 c -0.15625,0.625 -0.33203,1.25 -0.56641,1.8945 h 2.1289 c -2.4805,7.7539 -8.7891,13.379 -17.441,13.379 -8.9258,0 -12.402,-5.625 -11.27,-13.379 h -2.0703 c 0.07813,-0.64453 0.17578,-1.2695 0.3125,-1.8945 2.0703,-8.9258 8.5352,-15.313 17.93,-15.313 9.1992,0 12.988,6.4453 10.977,15.313 z m -8.574,1.894 h -2.1094 c 0.19531,-0.64453 0.39063,-1.2695 0.52734,-1.9336 2.4805,-10.723 -6.1719,-10.41 -8.5938,0.03906 -0.13672,0.68359 -0.23438,1.3086 -0.33203,1.8945 h 2.1094 c -1.0156,8.1641 5.6445,7.9883 8.3984,0 z m 40.785914,-1.894 c -0.15625,0.625 -0.33203,1.25 -0.56641,1.8945 h 2.1289 c -2.4805,7.7539 -8.7891,13.379 -17.441,13.379 -8.9258,0 -12.402,-5.625 -11.27,-13.379 h -2.0703 c 0.07813,-0.64453 0.17578,-1.2695 0.3125,-1.8945 2.0703,-8.9258 8.5352,-15.313 17.93,-15.313 9.1992,0 12.988,6.4453 10.977,15.313 z m -8.574,1.894 h -2.1094 c 0.19531,-0.64453 0.39063,-1.2695 0.52734,-1.9336 2.4805,-10.723 -6.1719,-10.41 -8.5938,0.03906 -0.13672,0.68359 -0.23438,1.3086 -0.33203,1.8945 h 2.1094 c -1.0156,8.1641 5.6445,7.9883 8.3984,0 z m 28.325418,-0.859 -2.9688,13.359 h -9.902304 l 3.0469,-13.359 h -1.7773 l 1.9727,-8.5547 h -7.8125 l 1.7188,-7.4023 h 25.352004 l -1.6602,7.4023 h -7.793 l -1.9141,8.5547 h 1.7383 z m 8.75466,0.547 c 1.2695,-5.4492 2.5391,-10.918 3.8086,-16.367 h 11.719 c 7.0117,0 11.914,3.6328 8.6914,11.582 -0.82031,1.9727 -1.9141,3.5547 -3.1641,4.7852 h 1.7773 c -3.0664,2.9492 -7.3047,3.9453 -12.188,3.9453 l -2.0313,8.7695 h -9.7266 l 2.9297,-12.715 h -1.8164 z m 11.8555,-9.121 c -0.41016,1.9141 -0.87891,3.8672 -1.3086,5.8594 4.8633,-0.25391 6.6797,-5.8594 1.3086,-5.8594 z m 16.45018,8.574 h -1.7773 l 3.6328,-15.957 c 3.3984,0 9.5313,-0.33203 14.375,0.3125 4.2773,0.625 8.418,2.207 7.6953,7.3438 -0.41016,3.1055 -2.793,6.2891 -5.3711,8.3008 h 1.7578 c -0.46875,0.35156 -0.9375,0.72266 -1.4453,0.97656 l 6.6797,12.383 h -11.719 l -4.8828,-9.5508 -2.168,9.5508 h -9.8438 z m 10.0783,-8.731 -1.1914,5.0391 c 4.707,0 7.3438,-5.0391 1.1914,-5.0391 z m 30.06347,9.356 -2.9297,12.734 h -9.8828 l 2.9297,-12.734 h -1.9922 l 3.8281,-16.484 h 9.8633 l -3.7891,16.484 z m 31.4502,-0.078 -2.9102,12.715 h -9.082 l -3.8672,-12.715 h -0.44922 l -2.9492,12.715 h -9.1992 l 2.9492,-12.715 h -1.7773 l 3.7695,-16.367 h 10.723 l 3.1641,10.273 2.4023,-10.273 h 9.2383 l -3.7891,16.367 h 1.7773 z m 21.60647,-0.547 -2.9688,13.359 h -9.9023 l 3.0469,-13.359 h -1.7773 l 1.9727,-8.5547 h -7.8125 l 1.7188,-7.4023 h 25.352 l -1.6602,7.4023 h -7.793 l -1.9141,8.5547 h 1.7383 z m 33.67667,0 c 1.1328,4.1016 -2.2656,8.9453 -5.4102,11.074 -6.1719,4.043 -14.316,3.3984 -20.625,0.15625 l 1.8359,-8.125 h 3.0273 c 0.39063,4.1992 9.7852,5.9375 10.742,1.7969 0.46875,-2.0508 -6.8945,-2.6172 -9.3555,-4.5508 -0.13672,-0.11719 -0.29297,-0.23438 -0.41016,-0.35156 h -1.7969 c -1.9531,-1.8359 -2.1289,-4.2773 -1.5625,-6.8164 2.3828,-10.41 16.523,-11.445 24.688,-7.3242 l -1.8164,7.9102 h -3.0469 c 0.19531,-2.9688 -8.7891,-5 -9.6289,-1.4258 -0.56641,2.7734 8.5352,1.9531 11.055,6.3477 0.21484,0.39063 0.39063,0.85938 0.50781,1.3086 h 1.7969 z"
       id="path19" />
  </g>
</svg>
