<?xml version="1.0" encoding="UTF-8" standalone="no"?>
<svg
   viewBox="0 0 69.999992 69.999992"
   version="1.1"
   id="svg22"
   sodipodi:docname="desktop-logo.svg"
   inkscape:version="1.2.2 (b0a84865, 2022-12-01)"
   width="69.999992"
   height="69.999992"
   xmlns:inkscape="http://www.inkscape.org/namespaces/inkscape"
   xmlns:sodipodi="http://sodipodi.sourceforge.net/DTD/sodipodi-0.dtd"
   xmlns="http://www.w3.org/2000/svg"
   xmlns:svg="http://www.w3.org/2000/svg">
  <defs
     id="defs26" />
  <sodipodi:namedview
     id="namedview24"
     pagecolor="#ffffff"
     bordercolor="#000000"
     borderopacity="0.25"
     inkscape:showpageshadow="2"
     inkscape:pageopacity="0.0"
     inkscape:pagecheckerboard="true"
     inkscape:deskcolor="#d1d1d1"
     showgrid="false"
     inkscape:zoom="3.3675676"
     inkscape:cx="60.429373"
     inkscape:cy="35.188603"
     inkscape:window-width="1390"
     inkscape:window-height="1205"
     inkscape:window-x="3878"
     inkscape:window-y="25"
     inkscape:window-maximized="0"
     inkscape:current-layer="svg22" />
  <g
     transform="matrix(1.0204081,0,0,1.0204081,-16.020407,-16.020407)"
     fill="#ffffff"
     id="g17">
    <g
       id="g15">
      <path
         d="M 50,15.7 C 31.1,15.7 15.7,31.1 15.7,50 15.7,68.9 31.1,84.3 50,84.3 68.9,84.3 84.3,68.9 84.3,50 84.3,31.1 68.9,15.7 50,15.7 Z m 29.6,44.4 c -4.1,1.4 -8.4,2.4 -12.7,3.2 0.5,-3.9 0.8,-7.9 0.9,-11.9 h 13.4 c 0,3.1 -0.6,6 -1.6,8.7 z m -31.1,-28 c -4,0.1 -8,0.4 -11.9,0.9 0.8,-4.3 1.9,-8.5 3.2,-12.7 2.7,-0.9 5.6,-1.5 8.6,-1.7 z M 36.2,21.9 C 35,25.7 34.1,29.6 33.5,33.5 29.6,34.2 25.7,35.1 21.9,36.3 24.9,30 30,24.9 36.2,21.9 Z M 21.9,63.8 c 0.7,0.2 1.4,0.4 2.1,0.6 0.1,0 0.3,0.1 0.4,0.1 0.7,0 1.3,-0.4 1.4,-1.1 0.2,-0.8 -0.2,-1.6 -1,-1.8 -1.5,-0.4 -3,-0.9 -4.4,-1.3 -0.9,-2.7 -1.5,-5.6 -1.7,-8.6 h 12.4 c 0.8,0 1.5,-0.7 1.5,-1.5 0,-0.8 -0.7,-1.5 -1.5,-1.5 H 18.7 c 0.1,-3 0.7,-5.9 1.7,-8.6 4.1,-1.4 8.4,-2.4 12.7,-3.2 -0.4,2.9 -0.7,5.7 -0.8,8.6 0,0.8 0.6,1.5 1.4,1.6 0,0 0,0 0.1,0 0.8,0 1.5,-0.6 1.5,-1.4 0.1,-3.1 0.5,-6.2 0.9,-9.3 4.1,-0.6 8.2,-0.9 12.4,-1 v 1.5 c 0,0.8 0.7,1.5 1.5,1.5 0.8,0 1.5,-0.7 1.5,-1.5 v -1.6 c 0.4,0 0.9,0 1.3,0 0.8,0 1.5,-0.6 1.5,-1.5 0,-0.8 -0.6,-1.5 -1.5,-1.5 -0.5,0 -0.9,0 -1.4,0 V 18.7 c 3,0.1 5.9,0.7 8.6,1.7 0.3,1 0.6,2 0.9,3 0.2,0.7 0.8,1.1 1.4,1.1 0.1,0 0.3,0 0.4,-0.1 0.8,-0.2 1.2,-1.1 1,-1.9 -0.1,-0.2 -0.1,-0.4 -0.2,-0.6 6.4,3 11.5,8.1 14.5,14.3 -0.9,-0.3 -1.8,-0.5 -2.8,-0.8 -0.8,-0.2 -1.6,0.3 -1.8,1.1 -0.2,0.8 0.3,1.6 1.1,1.8 1.7,0.5 3.4,1 5,1.5 0.9,2.7 1.5,5.6 1.7,8.6 H 67.9 c 0,-0.3 0,-0.7 0,-1 0,-0.8 -0.7,-1.5 -1.5,-1.5 -0.8,0 -1.5,0.7 -1.5,1.5 0,0.3 0,0.6 0,1 h -11 c -0.8,0 -1.5,0.7 -1.5,1.5 0,0.8 0.7,1.5 1.5,1.5 h 11 c -0.1,4.2 -0.4,8.3 -1,12.4 -4.1,0.6 -8.2,0.9 -12.4,1 V 54.1 c 0,-0.8 -0.7,-1.5 -1.5,-1.5 -0.8,0 -1.5,0.7 -1.5,1.5 v 10.7 c -1,0 -2,0 -2.9,-0.1 -0.8,0 -1.5,0.6 -1.6,1.4 0,0.8 0.6,1.5 1.4,1.6 1,0 2,0.1 3.1,0.1 v 13.4 c -3,-0.1 -5.9,-0.7 -8.6,-1.7 -0.6,-1.7 -1.1,-3.4 -1.5,-5 -0.2,-0.8 -1,-1.3 -1.8,-1.1 -0.8,0.2 -1.3,1 -1.1,1.8 C 35.7,76.1 36,77 36.3,78 30,75.1 24.9,70 21.9,63.8 Z m 29.6,4.1 c 4,-0.1 7.9,-0.4 11.9,-0.9 -0.8,4.3 -1.9,8.5 -3.2,12.7 -2.7,0.9 -5.6,1.5 -8.6,1.7 z M 63.8,78.1 C 65,74.3 65.9,70.4 66.6,66.5 70.5,65.8 74.4,64.9 78.2,63.7 75.1,70 70,75.1 63.8,78.1 Z"
         id="path9" />
      <path
         d="m 40.4,65.1 c 0,-2.4 -1.6,-4.4 -3.7,-5.1 0.5,-2.5 2,-7.9 6.8,-11.8 4.7,-3.8 11.2,-5.1 19.4,-4 0.6,0.1 1.2,-0.2 1.5,-0.7 l 4.4,-4.7 c 1.8,-1.9 2.3,-4.6 1.3,-7.1 -0.9,-2.4 -3.1,-4 -5.6,-4.1 -0.3,0 -0.6,0 -0.9,0 -2.5,0.1 -4.7,1.7 -5.7,4.1 -1,2.5 -0.5,5.2 1.3,7.1 l 2.1,2.3 C 53.1,40.4 46.5,42 41.5,46 35.7,50.7 34,57.3 33.6,60 c -2.3,0.6 -4.1,2.7 -4.1,5.2 0,3 2.4,5.4 5.4,5.4 3,0 5.5,-2.5 5.5,-5.5 z M 60.7,32.7 c 0.5,-1.3 1.7,-2.1 3.1,-2.2 0.2,0 0.4,0 0.5,0 1.4,0.1 2.5,0.9 3,2.2 0.4,1.1 0.5,2.7 -0.7,4 L 64,39.5 61.4,36.7 c -1.1,-1.3 -1.1,-2.9 -0.7,-4 z M 35,67.5 c -1.3,0 -2.4,-1.1 -2.4,-2.4 0,-1.3 1.1,-2.4 2.4,-2.4 1.3,0 2.4,1.1 2.4,2.4 0,1.3 -1.1,2.4 -2.4,2.4 z"
         id="path11" />
      <circle
         cx="64.099998"
         cy="34.099998"
         r="1.7"
         id="circle13" />
    </g>
  </g>
</svg>
